<?xml version="1.0" encoding="utf-8"?>
<!-- Generator: Adobe Illustrator 16.0.4, SVG Export Plug-In . SVG Version: 6.00 Build 0)  -->
<!DOCTYPE svg PUBLIC "-//W3C//DTD SVG 1.1//EN" "http://www.w3.org/Graphics/SVG/1.1/DTD/svg11.dtd">
<svg version="1.1" id="Layer_1" xmlns="http://www.w3.org/2000/svg" xmlns:xlink="http://www.w3.org/1999/xlink" x="0px" y="0px"
	 width="595.28px" height="841.89px" viewBox="0 0 595.28 841.89" enable-background="new 0 0 595.28 841.89" xml:space="preserve">
<symbol  id="Arrow_6" viewBox="-21.764 -25.731 43.526 51.463">
	<polygon stroke="#000000" points="-20.536,4.72 -10.384,4.72 -10.384,-25.231 10.427,-25.231 10.427,4.212 20.576,4.212 
		0.274,25.024 	"/>
</symbol>
<path fill="none" stroke="#000000" stroke-miterlimit="10" d="M355.448,358.796c0,6.627-5.588,12-12.48,12H29.036
	c-6.893,0-12.48-5.373-12.48-12v-35.183c0-6.627,5.587-12,12.48-12h313.932c6.893,0,12.48,5.373,12.48,12V358.796z"/>
<rect x="16.896" y="311.612" fill="none" width="338.552" height="59.184"/>
<text transform="matrix(1.0339 0 0 1 63.7651 344.3521)" font-family="'MyriadPro-Regular'" font-size="14">Exome data of 51 early-onset CRC cases</text>
<path fill="none" stroke="#000000" stroke-miterlimit="10" d="M355.448,485.044c0,9.833-5.589,17.808-12.48,17.808H29.036
	c-6.893,0-12.48-7.975-12.48-17.808v-52.215c0-9.836,5.587-17.808,12.48-17.808h313.932c6.892,0,12.48,7.972,12.48,17.808V485.044z"
	/>
<rect x="16.556" y="415.021" fill="none" width="338.893" height="89.254"/>
<text transform="matrix(1 0 0 1 33.5557 435.541)"><tspan x="0" y="0" font-family="'MyriadPro-Regular'" font-size="12">Variants filtering</tspan><tspan x="0" y="14.4" font-family="'MyriadPro-Regular'" font-size="12">- Frameshift variants, nonsense variants, or splicing variants </tspan><tspan x="0" y="28.8" font-family="'MyriadPro-Regular'" font-size="12">- Variants with MMAF less than</tspan><tspan x="0" y="43.199" font-family="'MyriadPro-Regular'" font-size="12">     - 0.1% for autosomal-dominant variants</tspan><tspan x="0" y="57.6" font-family="'MyriadPro-Regular'" font-size="12">     - 1% for autosomal-recessive variants</tspan></text>
<use xlink:href="#Arrow_6"  width="43.526" height="51.463" id="XMLID_1_" x="-21.764" y="-25.731" transform="matrix(1.7082 0 0 0.5598 186.1338 391.0815)" overflow="visible"/>
</svg>
